<?xml version="1.0" encoding="utf-8"?>
<!-- Generator: Adobe Illustrator 19.0.0, SVG Export Plug-In . SVG Version: 6.00 Build 0)  -->
<svg version="1.1" id="Layer_1" xmlns="http://www.w3.org/2000/svg" xmlns:xlink="http://www.w3.org/1999/xlink" x="0px" y="0px"
	 viewBox="-892.5 420.6 422.5 196" style="enable-background:new -892.5 420.6 422.5 196;" xml:space="preserve">
<style type="text/css">
	.st0{fill:#006AA7;}
	.st1{fill:#DFDB00;}
	.st2{fill:#FEC200;}
</style>
<g>
	<path class="st0" d="M-625.9,509.9h46.2c12.7,0,23.2,10.9,23.2,24.2c0,11.7-8.1,21.6-18.7,23.8l21.8,31.9h-24.1l-21.5-31.4h-21.8
		v31.4h-19.4v-79.9H-625.9z M-620.9,546.4h29.7c6.2,0,11.2-4.8,11.2-11.2c0-6.4-5-11.7-11.2-11.7h-29.7V546.4z M-731,509.9h59.1
		c12.9,0,23.4,9.7,23.4,21.6c0,7.7-4.4,14.5-11,18.3c6.6,3.8,11,10.6,11,18.3c0,11.9-10.5,21.6-23.4,21.6H-731V509.9z M-711.4,554.6
		v20.9h27.9c6.2,0,11.3-4.7,11.3-10.5c0-5.7-5.1-10.4-11.3-10.4H-711.4z M-711.4,524.2v20.9h27.9c6.2,0,11.3-4.7,11.3-10.4
		c0-5.7-5.1-10.5-11.3-10.5H-711.4z M-742.1,509.8h-37.5c-15.8,0-28.7,12.9-28.7,28.7v51.3h17.6v-32.9h48.6v-14.2h-48.6v-0.2
		c0-10.2,8.3-18.5,18.5-18.5h30.1V509.8z"/>
	<path class="st1" d="M-681.3,489.3c-106.8,2.2-153.2,14.6-211.3,44.7c34.9-34.4,104.4-60.8,211.3-63c106.8,2.2,176.4,28.6,211.3,63
		C-528,503.9-574.4,491.5-681.3,489.3z"/>
	<path class="st2" d="M-681.3,420.6l5.2,50.1l18-14.4l-14.3,17.9l48.6,5.4l-48.7,5.4l14.9,18.4l-18.5-15l-5.3,50.2l-5.2-50.1
		l-18,14.4l14.3-17.9l-48.6-5.3l48.7-5.4l-14.9-18.4l18.5,15L-681.3,420.6z"/>
	<g>
		<path class="st0" d="M-681.5,599h12.1v3.4h-11.6c-0.8,0-1.5,0.7-1.5,1.5s0.7,1.5,1.5,1.5h5.8v0h0.3c3,0,5.5,2.5,5.5,5.5
			c0,3-2.5,5.5-5.5,5.5h-4.2v0h-7.3v-3.4h2.1v0h9c1.1,0,2.1-0.9,2.1-2.1c0-1.2-1-2.1-2.1-2.1h-2.4v0h-3.7c-2.7,0-4.9-2.2-4.9-4.9
			C-686.5,601.2-684.3,599-681.5,599L-681.5,599z M-660.9,599.1h10.3v3.6h-6.7v13.8h-3.6v-13.8h-6.7v-3.6H-660.9z M-631.9,599.1h5.3
			l8.7,12.6v-12.6h3.6v17.4h-5.3l-8.7-12.6v12.6h-3.6V599.1z M-639.2,609.1l-2.6-7.4l-2.6,7.4H-639.2z M-642.7,599.1h3.6l6,17.4
			h-3.6l-1.3-3.8h-7.7l-1.3,3.8h-3.6l6-17.4H-642.7z M-710.6,599.1h3.6v7l6.1-7h5l-7.6,8.7l7.6,8.7h-5l-6.1-7v7h-3.6V599.1z
			 M-718.8,609.1l-2.6-7.4l-2.6,7.4H-718.8z M-722.2,599.1h3.6l6,17.4h-3.6l-1.3-3.8h-7.7l-1.3,3.8h-3.6l6-17.4H-722.2z
			 M-693.1,599.1h3.6v17.4h-3.6V599.1z M-736,599h-9.9v0.1h-2.2v17.4h3.6v-5.8h8.5c3.2,0,5.9-2.7,5.9-5.9S-732.8,599-736,599z
			 M-744.5,602.4h8.5c1.4,0,2.5,1.1,2.5,2.5c0,1.4-1.1,2.5-2.5,2.5h-8.5V602.4z"/>
	</g>
</g>
</svg>
